<svg width="414" height="736" viewBox="0 0 414 736" fill="none" xmlns="http://www.w3.org/2000/svg">
<rect width="414" height="736" fill="url(#paint0_radial_18_13)"/>
<g opacity="0.04">
<path d="M362.576 89.8133L349.239 89.8934V67.4518H361.858C367.075 67.4518 371.015 68.3836 373.677 70.2471C376.34 72.1106 377.671 74.9056 377.671 78.6321C377.671 82.3063 376.393 85.0751 373.838 86.9387C371.282 88.8022 367.528 89.7604 362.576 89.8133Z" fill="white"/>
<path d="M359.861 57.3087H349.239V37.0232H361.777C365.718 37.0232 368.779 37.8618 370.962 39.5389C373.145 41.216 374.237 43.6253 374.237 46.7666C374.237 50.1209 372.999 52.7298 370.523 54.5933C368.047 56.4568 364.493 57.362 359.861 57.3087Z" fill="white"/>
<path fill-rule="evenodd" clip-rule="evenodd" d="M392.366 138.531C382.409 142.844 371.787 145 360.5 145C349.212 145 338.59 142.844 328.634 138.531C318.678 134.219 309.906 128.268 302.319 120.681C294.732 113.094 288.782 104.322 284.469 94.366C280.156 84.4094 278 73.7874 278 62.5C278 51.2125 280.156 40.5905 284.469 30.6341C288.782 20.6776 294.718 11.9058 302.279 4.31868C303.777 2.8148 305.323 1.37524 306.916 0L414 6.6512e-08V125.025C407.548 130.577 400.336 135.079 392.366 138.531ZM337.02 33.8286V93.2481C337.02 95.4305 337.659 97.1608 338.937 98.4387C340.214 99.7167 341.945 100.356 344.128 100.356H347.881V106.744C347.881 107.863 348.227 108.781 348.92 109.5C349.612 110.219 350.517 110.578 351.635 110.578C352.7 110.578 353.592 110.219 354.31 109.5C355.029 108.781 355.389 107.863 355.389 106.744V100.356H360.58V106.744C360.58 107.863 360.953 108.781 361.698 109.5C362.443 110.219 363.322 110.578 364.333 110.578C365.398 110.578 366.304 110.219 367.049 109.5C367.794 108.781 368.167 107.863 368.167 106.744V100.196C374.982 99.6101 380.32 97.4669 384.18 93.7666C388.04 90.0662 389.97 85.2346 389.97 79.2717C389.97 74.8522 388.732 71.0587 386.256 67.891C383.78 64.7228 380.519 62.5265 376.473 61.302C379.401 59.8644 381.81 57.708 383.7 54.8329C385.591 51.9578 386.536 48.8431 386.536 45.4888C386.536 40.4307 384.885 36.2379 381.584 32.9102C378.283 29.5825 373.81 27.5726 368.167 26.8804V20.3315C368.167 19.2134 367.794 18.295 367.049 17.5762C366.304 16.8574 365.398 16.498 364.333 16.498C363.322 16.498 362.443 16.8574 361.698 17.5762C360.953 18.295 360.58 19.2134 360.58 20.3315V26.6408H355.389V20.3315C355.389 19.2134 355.029 18.295 354.31 17.5762C353.592 16.8574 352.7 16.498 351.635 16.498C350.517 16.498 349.612 16.8574 348.92 17.5762C348.227 18.295 347.881 19.2134 347.881 20.3315V26.6408H344.128C341.998 26.6408 340.281 27.293 338.976 28.5975C337.672 29.9019 337.02 31.6456 337.02 33.8286Z" fill="white"/>
</g>
<defs>
<radialGradient id="paint0_radial_18_13" cx="0" cy="0" r="1" gradientUnits="userSpaceOnUse" gradientTransform="translate(-56.5001 -114.5) rotate(62.5827) scale(1157.52 1112.82)">
<stop stop-color="#3A6073"/>
<stop offset="0.656932" stop-color="#253C49"/>
<stop offset="1" stop-color="#16222A"/>
</radialGradient>
</defs>
</svg>
